<?xml version="1.0" encoding="UTF-8"?>
<svg id="_レイヤー_2" data-name="レイヤー 2" xmlns="http://www.w3.org/2000/svg" viewBox="0 0 128.63 64.4">
  <defs>
    <style>
      .cls-1 {
        fill: none;
        stroke: #ff853c;
        stroke-miterlimit: 10;
      }

      .cls-2 {
        fill: #ff853c;
      }
    </style>
  </defs>
  <g id="icon">
    <g>
      <path class="cls-2" d="M79.8,32.62c-.25.75-.82,2.07-1.1,2.46-.49.1-1.48.34-2.65.34-2.86,0-4.94-1.67-4.94-4.62,0-3.84,3.07-6.25,6.63-6.25,1.42,0,2.31.27,2.92.39-.12.63-.27,1.73-.36,2.64l-.55.04c-.09-1.84-.79-2.42-2.23-2.42-2.42,0-4.34,2.49-4.34,5.66,0,2.47,1.18,3.88,2.96,3.88,1.35,0,2.19-.73,3.16-2.33l.49.21Z"/>
      <path class="cls-2" d="M93.34,25.3c-1.32.09-1.4.23-1.64,1.49l-1.24,6.36c-.24,1.27-.09,1.37,1.24,1.49l-.11.53h-4.72l.12-.53c1.29-.1,1.4-.25,1.65-1.51l.6-3.11h-4.62l-.6,3.13c-.24,1.26-.1,1.39,1.24,1.49l-.13.53h-4.71l.11-.53c1.24-.11,1.42-.23,1.65-1.49l1.24-6.36c.26-1.29.16-1.39-1.17-1.49l.11-.53h4.67l-.12.53c-1.31.1-1.42.23-1.67,1.49l-.46,2.51h4.6l.48-2.51c.25-1.27.17-1.39-1.19-1.49l.14-.53h4.65l-.13.53Z"/>
      <path class="cls-2" d="M99.15,25.3c-1.31.1-1.41.22-1.64,1.45l-1.24,6.43c-.24,1.24-.12,1.37,1.24,1.47l-.12.53h-4.71l.11-.53c1.24-.1,1.4-.23,1.64-1.47l1.25-6.43c.25-1.24.14-1.35-1.19-1.45l.13-.53h4.65l-.12.53Z"/>
      <path class="cls-2" d="M111.39,25.3c-1.32.09-1.4.23-1.64,1.49l-1.24,6.36c-.24,1.27-.09,1.37,1.24,1.49l-.11.53h-4.72l.12-.53c1.29-.1,1.4-.25,1.65-1.51l.6-3.11h-4.62l-.6,3.13c-.24,1.26-.1,1.39,1.24,1.49l-.13.53h-4.71l.11-.53c1.24-.11,1.42-.23,1.65-1.49l1.24-6.36c.26-1.29.16-1.39-1.17-1.49l.11-.53h4.67l-.12.53c-1.31.1-1.42.23-1.67,1.49l-.46,2.51h4.6l.48-2.51c.25-1.27.17-1.39-1.19-1.49l.14-.53h4.65l-.13.53Z"/>
      <path class="cls-2" d="M121.91,29.06c0,3.45-2.48,6.36-5.85,6.36-2.61,0-4.32-1.72-4.32-4.47,0-3.28,2.43-6.4,5.86-6.4,2.67,0,4.31,1.78,4.31,4.51ZM113.8,31.29c0,2.07.7,3.46,2.37,3.46,2.37,0,3.66-3.27,3.66-6.03,0-2.18-.61-3.52-2.34-3.52-2.21,0-3.7,3.1-3.7,6.09Z"/>
      <path class="cls-2" d="M76.25,40.77c3.42,0,5.27,1.71,5.26,4.44-.01,1.98-.88,3.8-2.6,4.84-1.36.84-2.7,1.12-4.67,1.12h-4.08l.12-.52c1.23-.1,1.42-.3,1.63-1.47l1.24-6.38c.24-1.24.18-1.4-1.18-1.5l.12-.53h4.16ZM73.77,48.96c-.27,1.42.56,1.53,1.41,1.53,2.73,0,4.27-2.49,4.27-5.41,0-2.19-.94-3.66-3.11-3.66-.92,0-1.13.14-1.29.99l-1.28,6.55Z"/>
      <path class="cls-2" d="M89.05,40.77c.81,0,1.57,0,2.17-.02-.11.51-.28,1.75-.42,2.52l-.57.04c-.06-1.52-.28-1.87-1.35-1.87h-1.27c-.58,0-.79.07-.91.68l-.63,3.31h1.39c1.33,0,1.39-.19,1.85-1.3h.56l-.66,3.35h-.56c.02-1.23.03-1.37-1.31-1.37h-1.42l-.55,2.9c-.23,1.14-.14,1.49.9,1.49h1c.92,0,1.3-.12,1.71-.49.37-.33.83-.91,1.16-1.55l.54.2c-.18.54-.71,1.97-.95,2.51h-8.08l.12-.52c1.33-.11,1.5-.21,1.74-1.47l1.25-6.4c.24-1.25.13-1.37-1.19-1.48l.14-.53h5.34Z"/>
      <path class="cls-2" d="M92.42,48.17c.16,1.2.73,2.6,2.43,2.6,1.15,0,1.8-.74,1.8-1.81,0-.88-.47-1.48-1.36-2.13l-.53-.4c-.87-.65-1.83-1.48-1.83-2.84,0-1.74,1.33-3.05,3.49-3.05,1.21,0,2.22.33,2.59.44-.15.64-.24,1.51-.33,2.41l-.55.04c-.04-1.1-.34-2.29-1.88-2.29-1.12,0-1.67.79-1.67,1.76,0,.82.42,1.31,1.27,1.92l.56.4c1.12.81,2.01,1.64,2.01,2.97,0,1.89-1.62,3.21-3.73,3.21-1.37,0-2.48-.5-2.92-.75.04-.39.08-1.31.12-2.44l.54-.06Z"/>
      <path class="cls-2" d="M105.5,41.3c-1.31.1-1.41.22-1.64,1.45l-1.24,6.43c-.24,1.24-.12,1.37,1.24,1.47l-.12.53h-4.71l.11-.53c1.24-.1,1.4-.23,1.64-1.47l1.25-6.43c.25-1.24.14-1.35-1.19-1.45l.13-.53h4.65l-.12.53Z"/>
      <path class="cls-2" d="M114.72,43.68c.02-2.01-.99-2.46-2.34-2.46-2.57,0-4.46,2.46-4.46,5.6,0,2.57,1.13,3.95,2.97,3.95.73,0,1.37-.26,1.55-1.16l.26-1.31c.23-1.19.08-1.25-1.46-1.41l.13-.52h4.52l-.12.53c-.91.12-1.01.19-1.24,1.4l-.23,1.27c-.1.49-.13.94-.1,1.25-.94.24-2.14.6-3.41.6-2.98,0-4.95-1.68-4.95-4.61,0-3.72,2.87-6.26,6.81-6.26,1.35,0,2.47.27,3.08.39-.12.53-.29,1.56-.42,2.69l-.58.05Z"/>
      <path class="cls-2" d="M128.5,41.3c-1.07.07-1.32.34-1.5,1-.14.51-.31,1.19-.59,2.71l-1.22,6.32h-.78l-4.7-8.27-.77,4.01c-.27,1.34-.37,2.07-.42,2.58-.06.75.27.92,1.47,1l-.12.52h-3.97l.11-.52c.96-.08,1.35-.28,1.57-.99.17-.54.33-1.21.61-2.67l.83-4.1c.12-.58.04-.94-.22-1.18-.23-.24-.61-.37-1.26-.42l.13-.53h2.75l4.53,7.69.67-3.45c.3-1.56.39-2.24.43-2.69.07-.76-.29-.96-1.43-1.01l.12-.53h3.89l-.13.53Z"/>
    </g>
    <path class="cls-1" d="M8.04,27.21C47.29,15.98,63.47,11.06,70.96,8.9c4.91-1.41,3.09-.79,14.43-3.96,0,0,7.96-2.4,16.97-4.45.05-.01-15.22,3.4-38.82,8.89-16.8,3.91-19.88,2.75-23.81,4.62-5.39,2.56-11.16,4.24-16.2,5.81-11.19,3.5-15.7,2.27-22.91,7.56-.2.14-.11.46.14.48.81.04,2.18.07,3.3-.15.28-.05.54-.11.87-.14l3.13-.37Z"/>
    <path class="cls-1" d="M8.02,27.38c.73,1.61,1.64,3.27,3.28,6.75,1.4,2.95,1.2,3.21,3,6.21.33.54.17.59.4.49,1.7-.72,9.24-3.26,15.49-6.56,11.01-5.81,13.12-5.23,15.5-7.1,3.34-2.62.69-4.12,6.27-6.84,1.76-.86,6.01-2.85,6.17-2.93,0,0,.07-.04.07-.04.75-.31,2.13-1.03,3.18-1.31.26-.07.74.2,1.12.56.48.45.04.92-.92,2.28-1.04.64-2.15-.06-3.02-.78-.25-.21-.34-.51-.43-.71"/>
    <path class="cls-1" d="M103.25,1.33c1.1-.02-42.13,18.9-42.72,18.8l.79-1.1"/>
    <path class="cls-1" d="M46.38,26.57l-2.52,4.92c-.16.31-.23.65-.22,1l.08,1.84c1.7-2.31,3.41-4.62,5.11-6.93.53-.86,1.63-2.35,3.54-3.43.15-.09.47-.23.89-.41,2.12-.9,6.89-2.71,6.89-2.71l.35.06,4.69,7.54c.13.24.46.91.28,1.74-.05.25-.14.58-.28.63-.59.2-1.68-2.94-.71-3.25.41-.13-.24-.13-.77-.39-.26-.13-.71-.43-1.53-.78-1.05-.44-1.98-.5-2.59-.53,0,0-1.4-.06-2.73.25-2.04.47-5.98,4.6-8.95,11.38"/>
    <line class="cls-1" x1="61.57" y1="22.55" x2="53.26" y2="23.55"/>
    <path class="cls-1" d="M59.77,30.18c.32-.13,1.13-.5,2.24-.14,1.06.34,1.71,1.38,1.83,1.58"/>
    <path class="cls-1" d="M61.3,35.02l.21.77c.36,1.46.96,3.75,1.01,6.41.03,1.52-.16,5.38-.8,5.01-.79-.45-2.5-3.24-2.61-6.56-.11-3.16,1.32-5.06,1.99-5.49,0,0,0,0,.2-.13,1.57-1.01,1.62-1.26,1.66-1.35.22-.51.25-.64.65-1.75.05-.13.14-.25.27-.31l1.04-.58.12-.08.09-.12"/>
    <path class="cls-1" d="M61.75,47.11c.07.04,1.03,1.28.97,3.08-.04,1.14-.29,1.35-1.02,2.73-.08.15-.25.23-.32.38l-5.7,10.42c-.47.56-3.06-.22-5.14-.74-3.93-1-4.83-1.44-6.7-1.78"/>
    <path class="cls-1" d="M43.73,34.33l.1,1.92c0,.16.05.32.12.46.83,1.67,1.66,3.37,2.48,5.1,1.56,3.28,2.39,3.91,2.57,5.56.19,1.73.44,2.14-1.59,5.97-.87,1.65-1.99,4.01-3.5,6.63"/>
  </g>
</svg>